<?xml version="1.0" standalone="no"?>
<!DOCTYPE svg PUBLIC "-//W3C//DTD SVG 20010904//EN"
 "http://www.w3.org/TR/2001/REC-SVG-20010904/DTD/svg10.dtd">
<svg version="1.0" xmlns="http://www.w3.org/2000/svg"
 width="512.000000pt" height="512.000000pt" viewBox="0 0 512.000000 512.000000"
 preserveAspectRatio="xMidYMid meet">
<metadata>
Created by potrace 1.11, written by Peter Selinger 2001-2013
</metadata>
<g transform="translate(0.000000,512.000000) scale(0.100000,-0.100000)"
fill="#000000" stroke="none">
<path d="M1656 5089 c-66 -78 -97 -163 -86 -231 l7 -36 -41 1 c-79 1 -97 -3
-121 -28 -15 -14 -25 -35 -25 -52 1 -55 42 -83 124 -83 31 0 55 -3 54 -7 -2
-7 8 -120 17 -193 1 -14 6 -56 10 -94 7 -73 17 -110 34 -120 19 -12 141 -8
156 4 8 7 15 11 16 9 0 -2 2 -15 4 -29 2 -14 18 -88 35 -165 17 -77 33 -151
36 -164 3 -12 12 -52 20 -88 l15 -66 -90 -92 c-73 -74 -91 -98 -90 -121 0 -16
26 -94 58 -174 l57 -145 166 -120 c246 -179 221 -155 204 -190 -8 -17 -42 -94
-75 -172 -48 -112 -59 -147 -52 -165 5 -13 32 -72 61 -132 l52 -110 -30 -155
-31 -156 30 -100 c29 -98 33 -120 44 -260 18 -248 20 -225 -29 -373 l-45 -137
1 -235 c0 -129 4 -245 9 -257 6 -16 14 -21 31 -18 25 5 24 15 19 -150 l-1 -30
-96 0 c-135 1 -139 -3 -139 -132 l0 -98 -68 -3 c-56 -2 -69 -6 -81 -25 -21
-31 -20 -161 0 -182 14 -13 120 -15 915 -15 1033 0 919 -14 919 113 0 94 -12
107 -98 107 -71 0 -65 -10 -62 116 1 64 -2 85 -15 98 -20 20 -8 18 -144 20
l-115 2 1 275 c0 150 1 320 2 377 l1 102 28 0 c35 0 50 25 47 75 -9 136 -25
324 -30 355 -4 23 -8 63 -20 195 -10 110 -16 172 -20 205 -2 19 -6 62 -9 95
-3 33 -8 88 -11 123 -3 34 -4 62 -1 62 3 0 35 -12 71 -26 36 -14 71 -24 78
-21 6 3 41 59 76 125 l63 121 57 -39 c93 -62 109 -59 167 31 82 128 81 137
-21 202 l-74 47 44 85 c63 121 62 123 -125 182 l-147 46 -77 111 -77 111 -136
34 c-75 18 -167 42 -204 53 l-69 21 0 122 c0 116 1 123 24 144 26 25 45 92 45
156 -1 22 0 54 0 71 l1 31 81 1 c102 1 112 5 135 48 18 33 18 36 2 64 -17 29
-17 30 7 46 60 39 43 135 -26 147 -13 3 -50 -3 -82 -13 l-58 -18 62 58 c51 48
61 62 56 82 -4 12 -7 29 -7 36 0 19 -59 50 -83 44 -12 -2 -56 -30 -97 -62 -65
-49 -78 -56 -97 -47 -21 9 -23 17 -23 93 0 46 -5 94 -11 108 -22 48 -97 57
-131 15 -19 -23 -20 -27 -21 -136 0 -71 -1 -72 -30 -83 -27 -9 -34 -7 -56 13
-14 13 -39 36 -56 51 -48 44 -75 54 -113 44 -25 -7 -37 -18 -48 -43 -19 -45
-8 -71 52 -123 51 -46 50 -48 -16 -28 -78 23 -130 -8 -130 -78 0 -22 28 -60
50 -68 8 -2 7 -12 -3 -31 -17 -33 -12 -68 14 -96 19 -21 72 -27 176 -21 l32 1
-1 -78 c-1 -100 8 -140 39 -181 20 -27 25 -45 25 -93 1 -33 -1 -62 -4 -64 -2
-2 -72 19 -156 47 l-152 52 -40 53 c-36 48 -52 90 -66 173 -2 14 -11 54 -19
90 -8 36 -22 99 -31 140 -9 41 -18 85 -19 97 -2 11 -6 29 -9 40 -3 10 -8 32
-11 48 -7 45 -14 75 -19 93 -3 9 -8 45 -11 79 -12 108 -13 114 -25 127 -6 8
-23 17 -38 21 -97 23 -102 25 -102 50 0 31 5 33 73 36 83 3 122 48 98 112 -14
36 -54 52 -124 51 -56 -1 -56 0 -50 25 18 67 -17 167 -81 236 -41 43 -67 44
-100 4z"/>
<path d="M3865 4135 c-34 -33 -34 -83 0 -115 23 -21 32 -23 146 -22 104 0 125
3 148 20 37 27 41 83 7 117 -24 24 -30 25 -151 25 -120 0 -127 -1 -150 -25z"/>
<path d="M4083 3889 c-26 -9 -42 -31 -49 -66 -4 -23 0 -36 19 -59 l25 -29 219
-2 c225 -1 276 5 293 37 23 43 -3 117 -43 121 -47 6 -449 4 -464 -2z"/>
<path d="M1240 2782 c-63 -9 -93 -88 -49 -135 18 -19 32 -22 125 -25 58 -2
121 -1 140 3 64 12 87 86 41 132 -23 24 -32 25 -128 27 -57 0 -115 -1 -129 -2z"/>
<path d="M3810 2023 c-34 -14 -41 -25 -44 -68 -2 -26 3 -40 21 -57 22 -21 36
-23 149 -26 l124 -4 30 30 c43 43 38 96 -13 124 -29 16 -231 17 -267 1z"/>
<path d="M584 2002 c-62 -12 -85 -92 -40 -137 l25 -25 376 3 377 2 19 24 c27
33 25 82 -6 111 l-25 23 -353 1 c-194 1 -362 -1 -373 -2z"/>
<path d="M943 1720 c-47 -19 -57 -87 -18 -125 l24 -25 225 0 c124 0 235 4 248
9 52 20 60 89 16 131 -21 19 -34 20 -247 19 -124 0 -236 -4 -248 -9z"/>
</g>
</svg>
